# xmcd CD database file
#
# Track frame offsets:
#	150
#	21154
#	33083
#	51819
#	67643
#	82964
#	103678
#	123876
#	137108
#	161220
#	182200
#	204150
#	223574
#	236701
#	250996
#	272949
#
# Disc length: 3862 seconds
#
# Revision: 3
# Processed by: cddbd v1.5.2PL0 Copyright (c) Steve Scherf et al.
# Submitted via: CDex 1.70beta2
#
DISCID=db0f1410
DTITLE=Top Dog Brass Band - The Groove Will Make You Move
DYEAR=2009
DGENRE=Jazz
TTITLE0=We Came Here To Funk Ya
TTITLE1=Tribal Rave
TTITLE2=The Groove Will Make You Move
TTITLE3=Hey, Dr. Second Line
TTITLE4=Blow Fish Funk
TTITLE5=Drum Bun
TTITLE6=Peter and The Wolf
TTITLE7=Latin Experience
TTITLE8=Lothar's Dream
TTITLE9=I Bake A Pie
TTITLE10=Welcome To Newton
TTITLE11=Mama Elefant Jump
TTITLE12=TD Boom Boom
TTITLE13=We Don't Rule The World
TTITLE14=Le Loup
TTITLE15=The Groove Will Make You Move Remixski
EXTD=YEAR: 2009
EXTT0=
EXTT1=
EXTT2=
EXTT3=
EXTT4=
EXTT5=
EXTT6=
EXTT7=
EXTT8=
EXTT9=
EXTT10=
EXTT11=
EXTT12=
EXTT13=
EXTT14=
EXTT15=
PLAYORDER=
